Coordinates
version=1
nRows=5
nColumns=40
inDegrees=yes

Units are S.I. units (second, meters, Newtons, ...)
If the header above contains a line with 'inDegrees', this indicates whether rotational values are in degrees (yes) or radians (no).

endheader
time	pelvis_tilt	pelvis_list	pelvis_rotation	pelvis_tx	pelvis_ty	pelvis_tz	hip_flexion_r	hip_adduction_r	hip_rotation_r	knee_angle_r	knee_angle_r_beta	ankle_angle_r	subtalar_angle_r	mtp_angle_r	hip_flexion_l	hip_adduction_l	hip_rotation_l	knee_angle_l	knee_angle_l_beta	ankle_angle_l	subtalar_angle_l	mtp_angle_l	lumbar_extension	lumbar_bending	lumbar_rotation	arm_flex_r	arm_add_r	arm_rot_r	elbow_flex_r	pro_sup_r	wrist_flex_r	wrist_dev_r	arm_flex_l	arm_add_l	arm_rot_l	elbow_flex_l	pro_sup_l	wrist_flex_l	wrist_dev_l
      0.17500000	     -1.40246841	      7.25679453	      6.14968884	     -0.48570080	      0.89827769	      0.22948445	     29.21125765	    -13.38079505	    -18.17780960	      9.79705339	      0.17099084	      0.01967132	      6.51056692	      0.00000000	    -20.35040460	      3.18808819	    -16.77818700	     12.00391683	      0.20950787	      3.28035130	     15.36983565	      0.00000000	     -2.40506173	     -7.81954098	     -5.57601836	     33.35776081	    -14.17972179	     33.35776081	     79.90268209	     43.60271627	      0.00000000	      0.00000000	     33.35776081	    -14.17972179	     33.35776081	     79.90268209	     43.60271627	      0.00000000	      0.00000000
      0.18000000	     -1.14501943	      6.87205320	      6.22026865	     -0.47770698	      0.89828665	      0.22985453	     28.84003665	    -13.00920705	    -18.23463940	     10.44518473	      0.18230286	     -0.44796842	      5.82029612	      0.00000000	    -20.83183086	      2.57532338	    -16.75173351	     12.38059968	      0.21608223	      2.42653952	     14.85407915	      0.00000000	     -2.58668978	     -7.18580160	     -5.79821983	     33.36806050	    -14.18091214	     33.36806050	     79.88869077	     43.61372684	      0.00000000	      0.00000000	     33.36806050	    -14.18091214	     33.36806050	     79.88869077	     43.61372684	      0.00000000	      0.00000000
      0.18500000	     -0.66479516	      6.14325501	      6.54355475	     -0.46963921	      0.89897752	      0.22947994	     27.86236641	    -12.33274274	    -18.56373349	     10.53136585	      0.18380701	     -1.31706809	      5.01073011	      0.00000000	    -21.48783047	      1.52145386	    -16.54129302	     12.77073160	      0.22289131	      1.62074012	     14.31627861	      0.00000000	     -2.99424871	     -6.05334144	     -6.45663579	     33.40594578	    -14.18528513	     33.40594578	     79.83745789	     43.65357873	      0.00000000	      0.00000000	     33.40594578	    -14.18528513	     33.40594578	     79.83745789	     43.65357873	      0.00000000	      0.00000000
      0.19000000	     -0.48033749	      5.86872893	      6.53008102	     -0.46158217	      0.89902563	      0.23006383	     27.62009576	    -12.05900067	    -18.49797850	     11.27574375	      0.19679885	     -1.84386909	      4.48650605	      0.00000000	    -21.80761644	      1.03038403	    -16.67636005	     13.28823309	      0.23192342	      0.56098600	     13.85527604	      0.00000000	     -3.07814004	     -5.57787778	     -6.57955149	     33.41250518	    -14.18604130	     33.41250518	     79.82862732	     43.66037171	      0.00000000	      0.00000000	     33.41250518	    -14.18604130	     33.41250518	     79.82862732	     43.66037171	      0.00000000	      0.00000000
      0.19500000	     -0.26202540	      5.49240541	      6.52101223	     -0.45353036	      0.89920755	      0.23065615	     27.32791298	    -11.67912578	    -18.50621811	     12.00747846	      0.20957003	     -2.42417616	      3.85785689	      0.00000000	    -22.10280986	      0.43234110	    -16.77088566	     13.88470626	      0.24233384	     -0.47555573	     13.22526537	      0.00000000	     -3.18711805	     -4.96834554	     -6.71705205	     33.41982602	    -14.18688492	     33.41982602	     79.81878486	     43.66791702	      0.00000000	      0.00000000	     33.41982602	    -14.18688492	     33.41982602	     79.81878486	     43.66791702	      0.00000000	      0.00000000
